<svg width="24" height="25" viewBox="0 0 24 25" fill="none" xmlns="http://www.w3.org/2000/svg">
<path d="M15.9239 16.6948C16.2375 16.4096 16.2492 15.9202 15.9494 15.6204L12.7 12.371V7.32102C12.7 6.90681 12.3642 6.57102 11.95 6.57102C11.5358 6.57102 11.2 6.90681 11.2 7.32102V12.5568C11.2 12.822 11.3054 13.0764 11.4929 13.2639L14.8994 16.6704C15.1797 16.9507 15.6306 16.9614 15.9239 16.6948Z" fill="#141C24"/>
<path d="M12 22.571C10.6333 22.571 9.34167 22.3085 8.125 21.7835C6.90833 21.2585 5.84583 20.5419 4.9375 19.6335C4.02917 18.7252 3.3125 17.6627 2.7875 16.446C2.2625 15.2294 2 13.9294 2 12.546C2 11.1794 2.2625 9.88769 2.7875 8.67102C3.3125 7.45435 4.02917 6.39602 4.9375 5.49602C5.84583 4.59602 6.90833 3.88352 8.125 3.35852C9.34167 2.83352 10.6417 2.57102 12.025 2.57102C13.3917 2.57102 14.6833 2.83352 15.9 3.35852C17.1167 3.88352 18.175 4.59602 19.075 5.49602C19.975 6.39602 20.6875 7.45435 21.2125 8.67102C21.7375 9.88769 22 11.1877 22 12.571C22 13.9377 21.7375 15.2294 21.2125 16.446C20.6875 17.6627 19.975 18.7252 19.075 19.6335C18.175 20.5419 17.1167 21.2585 15.9 21.7835C14.6833 22.3085 13.3833 22.571 12 22.571ZM12 21.071C14.3667 21.071 16.375 20.2419 18.025 18.5835C19.675 16.9252 20.5 14.921 20.5 12.571C20.5 10.2044 19.675 8.19602 18.025 6.54602C16.375 4.89602 14.3667 4.07102 12 4.07102C9.65 4.07102 7.64583 4.89602 5.9875 6.54602C4.32917 8.19602 3.5 10.2044 3.5 12.571C3.5 14.921 4.32917 16.9252 5.9875 18.5835C7.64583 20.2419 9.65 21.071 12 21.071Z" fill="#141C24"/>
</svg>
